<!DOCTYPE svg PUBLIC "-//W3C//DTD SVG 1.1//EN" "http://www.w3.org/Graphics/SVG/1.1/DTD/svg11.dtd">
<!-- Uploaded to: SVG Repo, www.svgrepo.com, Transformed by: SVG Repo Mixer Tools -->
<svg fill="#024ff9" height="800px" width="800px" version="1.1" id="Layer_1" xmlns="http://www.w3.org/2000/svg" xmlns:xlink="http://www.w3.org/1999/xlink" viewBox="0 0 323.361 323.361" xml:space="preserve">
<g id="SVGRepo_bgCarrier" stroke-width="0"/>
<g id="SVGRepo_tracerCarrier" stroke-linecap="round" stroke-linejoin="round"/>
<g id="SVGRepo_iconCarrier"> <g> <g> <g> <path d="M57.89,64.133c11.896,0,21.572-9.68,21.572-21.572c0-11.896-9.68-21.572-21.572-21.572 c-11.892,0-21.572,9.672-21.572,21.572C36.318,54.453,45.994,64.133,57.89,64.133z M57.89,27.865 c8.1,0,14.696,6.592,14.696,14.692c0,8.1-6.596,14.692-14.696,14.692c-8.1,0-14.692-6.592-14.692-14.692 C43.198,34.461,49.79,27.865,57.89,27.865z"/> <path d="M279.414,244.641c1.644-2.568,3.212-5.208,4.692-7.932c15.972-29.464,19.516-63.388,9.972-95.52 c-9.54-32.132-31.024-58.62-60.488-74.592c-23.044-12.496-48.776-17.304-74.632-14.204c-1.612-5.8-4.896-11-9.56-15.016 c-6.228-5.356-14.144-7.98-22.364-7.36c-8.192,0.612-15.66,4.38-21.016,10.608c-5.36,6.224-7.976,14.168-7.364,22.36 c0.304,4.032,1.376,7.888,3.124,11.404c-0.36,0.104-0.716,0.236-1.036,0.464c-15.552,11.116-28.088,25.332-37.26,42.256 c-1.472,2.716-2.8,5.48-4.06,8.268C5.87,102.705,2.51,108.833,0.702,112.161c-1.48,2.732-5.472,10.168,48.968,45.976 c-2.732,17.996-1.5,36.524,3.84,54.496c9.54,32.128,31.02,58.62,60.488,74.596c18.956,10.276,39.408,15.148,59.592,15.144 c30.6,0,60.568-11.212,83.696-31.784c2.896,1.256,5.812,2.532,8.572,3.688c29.384,12.316,43.104,15.664,49.796,15.664 c5.068,0,6.108-1.92,6.868-3.32C324.318,283.289,327.61,277.125,279.414,244.641z M111.23,45.113 c4.16-4.836,9.956-7.76,16.32-8.236c0.604-0.048,1.212-0.068,1.816-0.068c5.708,0,11.172,2.02,15.544,5.784 c4,3.44,6.596,8.024,7.676,13.096c-0.048,0.324-0.104,0.652-0.052,0.992c0.064,0.432,0.224,0.816,0.428,1.176 c0.044,0.356,0.156,0.696,0.184,1.056c0.476,6.364-1.556,12.528-5.716,17.36c-4.16,4.836-9.956,7.76-16.32,8.236 c-6.356,0.472-12.528-1.552-17.36-5.716c-4.836-4.16-7.76-9.956-8.232-16.316C105.034,56.113,107.066,49.945,111.23,45.113z M51.042,150.697c-28.336-18.896-41.4-30.476-43.744-34.912c3.06-0.136,14.124,1,49.448,15.94 C54.338,137.929,52.422,144.265,51.042,150.697z M117.266,281.177c-27.848-15.096-48.156-40.136-57.172-70.508 c-4.736-15.94-6.028-32.348-4.032-48.368c8.524,5.492,18.344,11.608,29.596,18.4c-0.428,1.788-0.712,3.628-0.712,5.54 c0,13.184,10.728,23.912,23.912,23.912c6.28,0,11.956-2.484,16.224-6.456c8.392,4.748,15.792,8.84,26.304,14.544 c35.636,19.316,70.048,36.436,98.892,49.272C214.046,298.025,161.358,305.077,117.266,281.177z M91.818,186.241 c0-9.392,7.64-17.032,17.032-17.032c9.392,0,17.032,7.644,17.032,17.032c0,9.392-7.64,17.032-17.032,17.032 C99.458,203.273,91.818,195.633,91.818,186.241z M255.822,262.553c-26.468-11.688-60.66-28.408-101.16-50.36 c-10.084-5.468-17.28-9.44-25.252-13.948c2.076-3.54,3.352-7.612,3.352-12.004c0-13.184-10.728-23.912-23.912-23.912 c-8.796,0-16.412,4.828-20.564,11.92c-11.78-7.128-22.092-13.612-31.052-19.46c1.532-8.024,3.888-15.92,7.096-23.564v-0.004 c0.004,0,0.004-0.004,0.004-0.004c1.54-3.668,3.268-7.284,5.188-10.828c8.672-15.996,20.516-29.432,35.212-39.936 c0.224-0.164,0.372-0.384,0.544-0.584c1.184,1.484,2.504,2.872,3.972,4.136c5.632,4.848,12.668,7.452,20.02,7.452 c0.776,0,1.56-0.028,2.344-0.088c8.192-0.612,15.66-4.38,21.02-10.608c5.188-6.024,7.772-13.66,7.384-21.572 c24.36-2.88,48.58,1.688,70.288,13.456c27.852,15.096,48.156,40.136,57.172,70.508c9.02,30.368,5.668,62.428-9.428,90.28 c-1.916,3.532-3.988,6.924-6.2,10.18c-0.016,0.024-0.044,0.036-0.064,0.064c-0.02,0.032-0.02,0.064-0.036,0.092 C267.046,250.681,261.686,256.941,255.822,262.553z M262.61,265.509c4.652-4.656,8.964-9.728,12.904-15.192 c31.908,21.516,38.88,30.148,40.368,32.768C310.286,283.829,291.742,278.049,262.61,265.509z"/> <path d="M277.634,188.021c-0.692,6.068-1.728,12.076-3.008,18.048c-0.652,3.048,4.024,4.348,4.68,1.292 c1.372-6.396,2.44-12.836,3.18-19.336C282.838,184.921,277.982,184.949,277.634,188.021z"/> <path d="M283.278,175.437c0.016-24.152-6.868-47.492-24.5-64.644c-2.24-2.18-5.676,1.248-3.432,3.432 c16.768,16.316,23.096,38.288,23.076,61.212C278.418,178.561,283.274,178.565,283.278,175.437z"/> <path d="M122.266,75.841c2.592,1.76,5.024-2.444,2.452-4.192c-5.924-4.012-7.968-11.468-5.48-18.06 c1.104-2.928-3.588-4.188-4.68-1.292C111.27,60.997,114.658,70.681,122.266,75.841z"/> <path d="M110.098,196.829c3.124,0.136,3.116-4.716,0-4.856c-3.668-0.16-7.676-4.108-7.164-7.908 c0.412-3.056-4.264-4.376-4.68-1.292C97.306,189.781,102.966,196.517,110.098,196.829z"/> <circle cx="39.658" cy="78.403" r="4.55"/> <path d="M86.07,72.029c2.512,0,4.552-2.04,4.552-4.552c0-2.512-2.04-4.548-4.552-4.548s-4.552,2.04-4.552,4.548 C81.522,69.993,83.558,72.029,86.07,72.029z"/> <path d="M165.858,40.177c2.512,0,4.552-2.04,4.552-4.552c0-2.512-2.04-4.548-4.552-4.548c-2.512,0-4.552,2.04-4.552,4.548 C161.306,38.141,163.346,40.177,165.858,40.177z"/> <path d="M18.118,166.077c-2.512,0-4.552,2.04-4.552,4.552c0,2.512,2.04,4.548,4.552,4.548c2.512,0,4.552-2.04,4.552-4.548 C22.67,168.113,20.63,166.077,18.118,166.077z"/> <path d="M128.242,124.513c-2.512,0-4.552,2.04-4.552,4.552c0,2.512,2.04,4.548,4.552,4.548s4.552-2.04,4.552-4.548 C132.79,126.553,130.754,124.513,128.242,124.513z"/> <path d="M251.41,236.457c-2.512,0-4.552,2.04-4.552,4.552c0,2.512,2.04,4.548,4.552,4.548c2.512,0,4.552-2.04,4.552-4.548 C255.958,238.497,253.922,236.457,251.41,236.457z"/> <path d="M176.382,93.045c-1.328,0.072-2.344,1.208-2.272,2.536l6.004,108.824c0.068,1.284,1.132,2.276,2.4,2.276 c0.044,0,0.092-0.004,0.136-0.004c1.324-0.072,2.344-1.208,2.272-2.536l-6.004-108.824 C178.85,93.989,177.722,93.009,176.382,93.045z"/> <path d="M196.162,76.197c-1.324,0.104-2.316,1.264-2.212,2.592l8.376,106.556c0.1,1.26,1.152,2.22,2.4,2.22 c0.064,0,0.128-0.004,0.192-0.004c1.324-0.104,2.316-1.264,2.212-2.592l-8.376-106.56 C198.646,77.085,197.478,76.121,196.162,76.197z"/> <path d="M219.726,109.369c-1.324,0.104-2.32,1.256-2.22,2.584l8.14,107.092c0.096,1.264,1.152,2.224,2.4,2.224 c0.064,0,0.124-0.004,0.184-0.008c1.324-0.1,2.32-1.26,2.22-2.584l-8.136-107.092 C222.21,110.261,221.034,109.261,219.726,109.369z"/> </g> </g> </g> </g>
</svg>